<mxfile host="app.diagrams.net" modified="2024-05-06T00:22:50.849Z" agent="Mozilla/5.0 (Windows NT 10.0; Win64; x64) AppleWebKit/537.36 (KHTML, like Gecko) Chrome/124.0.0.0 Safari/537.36" etag="qPWJS7PIUUGK4oJdtWjW" version="24.3.1" type="device">
  <diagram name="Page-1" id="GjRrNdp3WA9bdGzuYwUK">
    <mxGraphModel dx="806" dy="474" grid="1" gridSize="10" guides="1" tooltips="1" connect="1" arrows="1" fold="1" page="1" pageScale="1" pageWidth="850" pageHeight="1100" math="0" shadow="0">
      <root>
        <mxCell id="0" />
        <mxCell id="1" parent="0" />
        <mxCell id="1BlQj7b_C8HPfPM3DgUM-1" value="Admin" style="shape=umlActor;verticalLabelPosition=bottom;verticalAlign=top;html=1;" vertex="1" parent="1">
          <mxGeometry x="130" y="360" width="50" height="110" as="geometry" />
        </mxCell>
        <mxCell id="1BlQj7b_C8HPfPM3DgUM-8" value="Registration" style="ellipse;whiteSpace=wrap;html=1;" vertex="1" parent="1">
          <mxGeometry x="355" y="180" width="140" height="70" as="geometry" />
        </mxCell>
        <mxCell id="1BlQj7b_C8HPfPM3DgUM-9" value="Login" style="ellipse;whiteSpace=wrap;html=1;" vertex="1" parent="1">
          <mxGeometry x="355" y="270" width="140" height="70" as="geometry" />
        </mxCell>
        <mxCell id="1BlQj7b_C8HPfPM3DgUM-10" value="Manage Customer(Company)" style="ellipse;whiteSpace=wrap;html=1;" vertex="1" parent="1">
          <mxGeometry x="355" y="360" width="140" height="70" as="geometry" />
        </mxCell>
        <mxCell id="1BlQj7b_C8HPfPM3DgUM-11" value="Manage Invoices" style="ellipse;whiteSpace=wrap;html=1;" vertex="1" parent="1">
          <mxGeometry x="355" y="450" width="140" height="70" as="geometry" />
        </mxCell>
        <mxCell id="1BlQj7b_C8HPfPM3DgUM-12" value="Manage Profile" style="ellipse;whiteSpace=wrap;html=1;" vertex="1" parent="1">
          <mxGeometry x="355" y="540" width="140" height="70" as="geometry" />
        </mxCell>
        <mxCell id="1BlQj7b_C8HPfPM3DgUM-17" value="" style="swimlane;startSize=0;" vertex="1" parent="1">
          <mxGeometry x="280" y="120" width="290" height="550" as="geometry" />
        </mxCell>
        <mxCell id="1BlQj7b_C8HPfPM3DgUM-18" value="" style="endArrow=classic;html=1;rounded=0;exitX=0.5;exitY=0.5;exitDx=0;exitDy=0;exitPerimeter=0;entryX=0;entryY=0.5;entryDx=0;entryDy=0;" edge="1" parent="1" source="1BlQj7b_C8HPfPM3DgUM-1" target="1BlQj7b_C8HPfPM3DgUM-8">
          <mxGeometry width="50" height="50" relative="1" as="geometry">
            <mxPoint x="260" y="470" as="sourcePoint" />
            <mxPoint x="310" y="420" as="targetPoint" />
          </mxGeometry>
        </mxCell>
        <mxCell id="1BlQj7b_C8HPfPM3DgUM-19" value="" style="endArrow=classic;html=1;rounded=0;exitX=0.5;exitY=0.5;exitDx=0;exitDy=0;exitPerimeter=0;entryX=0;entryY=0.5;entryDx=0;entryDy=0;" edge="1" parent="1" source="1BlQj7b_C8HPfPM3DgUM-1" target="1BlQj7b_C8HPfPM3DgUM-9">
          <mxGeometry width="50" height="50" relative="1" as="geometry">
            <mxPoint x="210" y="450" as="sourcePoint" />
            <mxPoint x="410" y="250" as="targetPoint" />
          </mxGeometry>
        </mxCell>
        <mxCell id="1BlQj7b_C8HPfPM3DgUM-20" value="" style="endArrow=classic;html=1;rounded=0;exitX=0.5;exitY=0.5;exitDx=0;exitDy=0;exitPerimeter=0;entryX=0;entryY=0.5;entryDx=0;entryDy=0;" edge="1" parent="1" source="1BlQj7b_C8HPfPM3DgUM-1" target="1BlQj7b_C8HPfPM3DgUM-10">
          <mxGeometry width="50" height="50" relative="1" as="geometry">
            <mxPoint x="165" y="425" as="sourcePoint" />
            <mxPoint x="365" y="315" as="targetPoint" />
          </mxGeometry>
        </mxCell>
        <mxCell id="1BlQj7b_C8HPfPM3DgUM-21" value="" style="endArrow=classic;html=1;rounded=0;exitX=0.5;exitY=0.5;exitDx=0;exitDy=0;exitPerimeter=0;entryX=0;entryY=0.5;entryDx=0;entryDy=0;" edge="1" parent="1" source="1BlQj7b_C8HPfPM3DgUM-1" target="1BlQj7b_C8HPfPM3DgUM-11">
          <mxGeometry width="50" height="50" relative="1" as="geometry">
            <mxPoint x="165" y="425" as="sourcePoint" />
            <mxPoint x="365" y="405" as="targetPoint" />
          </mxGeometry>
        </mxCell>
        <mxCell id="1BlQj7b_C8HPfPM3DgUM-22" value="" style="endArrow=classic;html=1;rounded=0;exitX=0.5;exitY=0.5;exitDx=0;exitDy=0;exitPerimeter=0;entryX=0;entryY=0.5;entryDx=0;entryDy=0;" edge="1" parent="1" source="1BlQj7b_C8HPfPM3DgUM-1" target="1BlQj7b_C8HPfPM3DgUM-12">
          <mxGeometry width="50" height="50" relative="1" as="geometry">
            <mxPoint x="220" y="510" as="sourcePoint" />
            <mxPoint x="420" y="580" as="targetPoint" />
          </mxGeometry>
        </mxCell>
      </root>
    </mxGraphModel>
  </diagram>
</mxfile>
